<svg width="27" height="27" viewBox="0 0 27 27" fill="none" xmlns="http://www.w3.org/2000/svg">
<g clip-path="url(#clip0_2_930)">
<path d="M18.6245 14.3337C20.1201 15.349 21.168 16.7244 21.168 18.5583V21.8332H25.5345V18.5583C25.5345 16.1786 21.6374 14.7704 18.6245 14.3337Z" fill="#59598E"/>
<path d="M16.8019 13.1002C19.2144 13.1002 21.1684 11.1462 21.1684 8.73369C21.1684 6.3212 19.2144 4.36719 16.8019 4.36719C16.2889 4.36719 15.8085 4.47635 15.3501 4.62918C16.2561 5.75355 16.8019 7.18358 16.8019 8.73369C16.8019 10.2838 16.2561 11.7138 15.3501 12.8382C15.8085 12.991 16.2889 13.1002 16.8019 13.1002Z" fill="#59598E"/>
<path d="M10.2518 13.1002C12.6643 13.1002 14.6183 11.1462 14.6183 8.73369C14.6183 6.3212 12.6643 4.36719 10.2518 4.36719C7.83929 4.36719 5.88528 6.3212 5.88528 8.73369C5.88528 11.1462 7.83929 13.1002 10.2518 13.1002ZM10.2518 6.55044C11.4526 6.55044 12.435 7.5329 12.435 8.73369C12.435 9.93448 11.4526 10.9169 10.2518 10.9169C9.051 10.9169 8.06854 9.93448 8.06854 8.73369C8.06854 7.5329 9.051 6.55044 10.2518 6.55044Z" fill="#59598E"/>
<path d="M10.2519 14.1924C7.33728 14.1924 1.51892 15.6552 1.51892 18.5589V21.8338H18.9849V18.5589C18.9849 15.6552 13.1666 14.1924 10.2519 14.1924ZM16.8017 19.6505H3.70217V18.5698C3.9205 17.7838 7.30454 16.3756 10.2519 16.3756C13.1993 16.3756 16.5834 17.7838 16.8017 18.5589V19.6505Z" fill="#59598E"/>
</g>
<defs>
<clipPath id="clip0_2_930">
<rect width="26.199" height="26.199" fill="white" transform="translate(0.427063)"/>
</clipPath>
</defs>
</svg>
