<svg width="23" height="23" viewBox="0 0 23 23" fill="none" xmlns="http://www.w3.org/2000/svg">
<path d="M19.6376 12.1697C19.6812 11.8204 19.714 11.4711 19.714 11.0999C19.714 10.7288 19.6812 10.3794 19.6376 10.0301L21.9409 8.22894C22.1483 8.06519 22.2029 7.77045 22.0719 7.53029L19.8886 3.75327C19.7904 3.57861 19.6048 3.48036 19.4083 3.48036C19.3428 3.48036 19.2773 3.49128 19.2228 3.51311L16.5046 4.60474C15.937 4.16809 15.3256 3.80785 14.6598 3.53495L14.2449 0.642138C14.2122 0.380147 13.9829 0.183655 13.71 0.183655H9.34354C9.07063 0.183655 8.84139 0.380147 8.80864 0.642138L8.39383 3.53495C7.72794 3.80785 7.11662 4.179 6.54898 4.60474L3.83083 3.51311C3.76533 3.49128 3.69984 3.48036 3.63434 3.48036C3.44876 3.48036 3.26319 3.57861 3.16494 3.75327L0.98169 7.53029C0.839779 7.77045 0.905276 8.06519 1.11269 8.22894L3.41602 10.0301C3.37235 10.3794 3.3396 10.7397 3.3396 11.0999C3.3396 11.4601 3.37235 11.8204 3.41602 12.1697L1.11269 13.9709C0.905276 14.1346 0.850695 14.4294 0.98169 14.6695L3.16494 18.4466C3.26319 18.6212 3.44876 18.7195 3.64526 18.7195C3.71075 18.7195 3.77625 18.7085 3.83083 18.6867L6.54898 17.5951C7.11662 18.0317 7.72794 18.392 8.39383 18.6649L8.80864 21.5577C8.84139 21.8197 9.07063 22.0162 9.34354 22.0162H13.71C13.9829 22.0162 14.2122 21.8197 14.2449 21.5577L14.6598 18.6649C15.3256 18.392 15.937 18.0208 16.5046 17.5951L19.2228 18.6867C19.2882 18.7085 19.3537 18.7195 19.4192 18.7195C19.6048 18.7195 19.7904 18.6212 19.8886 18.4466L22.0719 14.6695C22.2029 14.4294 22.1483 14.1346 21.9409 13.9709L19.6376 12.1697ZM17.4762 10.303C17.5198 10.6414 17.5307 10.8707 17.5307 11.0999C17.5307 11.3292 17.5089 11.5693 17.4762 11.8968L17.3233 13.1303L18.2949 13.8945L19.4738 14.8114L18.7097 16.1323L17.3233 15.5756L16.188 15.1171L15.2056 15.8594C14.7362 16.2087 14.2886 16.4707 13.841 16.6563L12.6839 17.1257L12.5093 18.3592L12.2909 19.8329H10.7627L10.5552 18.3592L10.3806 17.1257L9.22346 16.6563C8.75406 16.4598 8.31741 16.2087 7.88076 15.8812L6.88738 15.1171L5.73026 15.5865L4.3439 16.1432L3.57976 14.8224L4.75871 13.9054L5.73026 13.1413L5.57743 11.9077C5.54468 11.5693 5.52285 11.3182 5.52285 11.0999C5.52285 10.8816 5.54468 10.6305 5.57743 10.303L5.73026 9.06949L4.75871 8.30535L3.57976 7.38838L4.3439 6.06752L5.73026 6.62425L6.86555 7.08273L7.84801 6.34042C8.31741 5.9911 8.76498 5.72911 9.21255 5.54354L10.3697 5.07414L10.5443 3.8406L10.7627 2.36691H12.28L12.4874 3.8406L12.6621 5.07414L13.8192 5.54354C14.2886 5.74003 14.7253 5.9911 15.1619 6.31859L16.1553 7.08273L17.3124 6.61333L18.6988 6.0566L19.4629 7.37747L18.2949 8.30535L17.3233 9.06949L17.4762 10.303ZM11.5268 6.73341C9.1143 6.73341 7.16029 8.68742 7.16029 11.0999C7.16029 13.5124 9.1143 15.4664 11.5268 15.4664C13.9393 15.4664 15.8933 13.5124 15.8933 11.0999C15.8933 8.68742 13.9393 6.73341 11.5268 6.73341ZM11.5268 13.2832C10.326 13.2832 9.34354 12.3007 9.34354 11.0999C9.34354 9.89912 10.326 8.91666 11.5268 8.91666C12.7276 8.91666 13.71 9.89912 13.71 11.0999C13.71 12.3007 12.7276 13.2832 11.5268 13.2832Z" fill="#59598E"/>
</svg>
