<svg width="847" height="323" viewBox="0 0 847 323" fill="none" xmlns="http://www.w3.org/2000/svg">
<rect width="847" height="323" rx="24" fill="#FFD4AD"/>
<line x1="1.74846e-07" y1="62" x2="847" y2="62.0001" stroke="#FFBC94" stroke-width="4"/>
<path d="M61.314 111.132C60.89 111.132 60.458 111.084 60.018 110.988C59.586 110.892 59.21 110.748 58.89 110.556C58.634 110.42 58.474 110.252 58.41 110.052C58.346 109.844 58.354 109.652 58.434 109.476C58.522 109.3 58.662 109.176 58.854 109.104C59.046 109.024 59.266 109.044 59.514 109.164C59.826 109.316 60.122 109.424 60.402 109.488C60.682 109.552 60.962 109.584 61.242 109.584C62.218 109.584 62.706 109.22 62.706 108.492C62.706 107.82 62.25 107.484 61.338 107.484H60.63C60.366 107.484 60.162 107.42 60.018 107.292C59.882 107.156 59.814 106.972 59.814 106.74C59.814 106.5 59.882 106.316 60.018 106.188C60.162 106.052 60.366 105.984 60.63 105.984H61.158C61.558 105.984 61.874 105.892 62.106 105.708C62.338 105.524 62.454 105.268 62.454 104.94C62.454 104.284 62.026 103.956 61.17 103.956C60.906 103.956 60.65 103.988 60.402 104.052C60.162 104.108 59.898 104.212 59.61 104.364C59.386 104.476 59.186 104.496 59.01 104.424C58.834 104.352 58.702 104.228 58.614 104.052C58.534 103.876 58.518 103.692 58.566 103.5C58.614 103.308 58.754 103.148 58.986 103.02C59.682 102.612 60.466 102.408 61.338 102.408C62.25 102.408 62.962 102.612 63.474 103.02C63.986 103.428 64.242 103.988 64.242 104.7C64.242 105.14 64.13 105.528 63.906 105.864C63.682 106.2 63.37 106.444 62.97 106.596C63.45 106.732 63.822 106.984 64.086 107.352C64.358 107.712 64.494 108.148 64.494 108.66C64.494 109.428 64.21 110.032 63.642 110.472C63.074 110.912 62.298 111.132 61.314 111.132ZM68.7133 111.132C67.6893 111.132 66.9053 110.752 66.3613 109.992C65.8253 109.232 65.5573 108.148 65.5573 106.74C65.5573 105.332 65.8253 104.26 66.3613 103.524C66.9053 102.78 67.6893 102.408 68.7133 102.408C69.7373 102.408 70.5173 102.78 71.0533 103.524C71.5973 104.26 71.8693 105.332 71.8693 106.74C71.8693 108.148 71.5973 109.232 71.0533 109.992C70.5173 110.752 69.7373 111.132 68.7133 111.132ZM68.7133 109.62C69.1773 109.62 69.5213 109.392 69.7453 108.936C69.9693 108.472 70.0813 107.74 70.0813 106.74C70.0813 105.74 69.9693 105.02 69.7453 104.58C69.5213 104.14 69.1773 103.92 68.7133 103.92C68.2493 103.92 67.9053 104.14 67.6813 104.58C67.4573 105.02 67.3453 105.74 67.3453 106.74C67.3453 107.74 67.4573 108.472 67.6813 108.936C67.9053 109.392 68.2493 109.62 68.7133 109.62ZM73.9166 111.108C73.3086 111.108 73.0046 110.8 73.0046 110.184V103.356C73.0046 102.74 73.3086 102.432 73.9166 102.432C74.5166 102.432 74.8166 102.74 74.8166 103.356V107.544H74.8406L76.5806 105.612C76.7566 105.412 76.9166 105.264 77.0606 105.168C77.2046 105.064 77.4046 105.012 77.6606 105.012C77.9086 105.012 78.1006 105.076 78.2366 105.204C78.3726 105.324 78.4406 105.48 78.4406 105.672C78.4406 105.856 78.3606 106.036 78.2006 106.212L76.6646 107.928L78.4046 109.932C78.5566 110.124 78.6206 110.312 78.5966 110.496C78.5806 110.672 78.5006 110.82 78.3566 110.94C78.2126 111.052 78.0286 111.108 77.8046 111.108C77.5246 111.108 77.3046 111.056 77.1446 110.952C76.9926 110.848 76.8286 110.688 76.6526 110.472L74.8406 108.456H74.8166V110.184C74.8166 110.8 74.5166 111.108 73.9166 111.108Z" fill="#664938"/>
<path d="M59.574 157C59.27 157 59.05 156.932 58.914 156.796C58.778 156.652 58.71 156.444 58.71 156.172C58.71 155.996 58.754 155.832 58.842 155.68C58.93 155.528 59.05 155.372 59.202 155.212L61.458 152.836C61.794 152.476 62.034 152.156 62.178 151.876C62.33 151.596 62.406 151.316 62.406 151.036C62.406 150.316 61.962 149.956 61.074 149.956C60.842 149.956 60.602 149.988 60.354 150.052C60.114 150.116 59.862 150.228 59.598 150.388C59.382 150.516 59.182 150.544 58.998 150.472C58.822 150.4 58.69 150.276 58.602 150.1C58.522 149.924 58.502 149.74 58.542 149.548C58.59 149.348 58.722 149.184 58.938 149.056C59.29 148.84 59.674 148.68 60.09 148.576C60.506 148.464 60.918 148.408 61.326 148.408C62.27 148.408 62.99 148.62 63.486 149.044C63.99 149.46 64.242 150.056 64.242 150.832C64.242 151.344 64.122 151.836 63.882 152.308C63.65 152.772 63.266 153.276 62.73 153.82L61.098 155.476H63.882C64.402 155.476 64.662 155.728 64.662 156.232C64.662 156.744 64.402 157 63.882 157H59.574ZM68.7133 157.132C67.6893 157.132 66.9053 156.752 66.3613 155.992C65.8253 155.232 65.5573 154.148 65.5573 152.74C65.5573 151.332 65.8253 150.26 66.3613 149.524C66.9053 148.78 67.6893 148.408 68.7133 148.408C69.7373 148.408 70.5173 148.78 71.0533 149.524C71.5973 150.26 71.8693 151.332 71.8693 152.74C71.8693 154.148 71.5973 155.232 71.0533 155.992C70.5173 156.752 69.7373 157.132 68.7133 157.132ZM68.7133 155.62C69.1773 155.62 69.5213 155.392 69.7453 154.936C69.9693 154.472 70.0813 153.74 70.0813 152.74C70.0813 151.74 69.9693 151.02 69.7453 150.58C69.5213 150.14 69.1773 149.92 68.7133 149.92C68.2493 149.92 67.9053 150.14 67.6813 150.58C67.4573 151.02 67.3453 151.74 67.3453 152.74C67.3453 153.74 67.4573 154.472 67.6813 154.936C67.9053 155.392 68.2493 155.62 68.7133 155.62ZM73.9166 157.108C73.3086 157.108 73.0046 156.8 73.0046 156.184V149.356C73.0046 148.74 73.3086 148.432 73.9166 148.432C74.5166 148.432 74.8166 148.74 74.8166 149.356V153.544H74.8406L76.5806 151.612C76.7566 151.412 76.9166 151.264 77.0606 151.168C77.2046 151.064 77.4046 151.012 77.6606 151.012C77.9086 151.012 78.1006 151.076 78.2366 151.204C78.3726 151.324 78.4406 151.48 78.4406 151.672C78.4406 151.856 78.3606 152.036 78.2006 152.212L76.6646 153.928L78.4046 155.932C78.5566 156.124 78.6206 156.312 78.5966 156.496C78.5806 156.672 78.5006 156.82 78.3566 156.94C78.2126 157.052 78.0286 157.108 77.8046 157.108C77.5246 157.108 77.3046 157.056 77.1446 156.952C76.9926 156.848 76.8286 156.688 76.6526 156.472L74.8406 154.456H74.8166V156.184C74.8166 156.8 74.5166 157.108 73.9166 157.108Z" fill="#664938"/>
<path d="M59.802 204C59.274 204 59.01 203.744 59.01 203.232C59.01 202.728 59.274 202.476 59.802 202.476H61.014V197.604L60.138 198.132C59.906 198.268 59.698 198.304 59.514 198.24C59.33 198.176 59.19 198.056 59.094 197.88C58.998 197.704 58.97 197.516 59.01 197.316C59.05 197.108 59.182 196.932 59.406 196.788L61.074 195.78C61.242 195.676 61.41 195.592 61.578 195.528C61.754 195.464 61.926 195.432 62.094 195.432C62.334 195.432 62.522 195.496 62.658 195.624C62.802 195.752 62.874 195.94 62.874 196.188V202.476H63.966C64.486 202.476 64.746 202.728 64.746 203.232C64.746 203.744 64.486 204 63.966 204H59.802ZM68.7133 204.132C67.6893 204.132 66.9053 203.752 66.3613 202.992C65.8253 202.232 65.5573 201.148 65.5573 199.74C65.5573 198.332 65.8253 197.26 66.3613 196.524C66.9053 195.78 67.6893 195.408 68.7133 195.408C69.7373 195.408 70.5173 195.78 71.0533 196.524C71.5973 197.26 71.8693 198.332 71.8693 199.74C71.8693 201.148 71.5973 202.232 71.0533 202.992C70.5173 203.752 69.7373 204.132 68.7133 204.132ZM68.7133 202.62C69.1773 202.62 69.5213 202.392 69.7453 201.936C69.9693 201.472 70.0813 200.74 70.0813 199.74C70.0813 198.74 69.9693 198.02 69.7453 197.58C69.5213 197.14 69.1773 196.92 68.7133 196.92C68.2493 196.92 67.9053 197.14 67.6813 197.58C67.4573 198.02 67.3453 198.74 67.3453 199.74C67.3453 200.74 67.4573 201.472 67.6813 201.936C67.9053 202.392 68.2493 202.62 68.7133 202.62ZM73.9166 204.108C73.3086 204.108 73.0046 203.8 73.0046 203.184V196.356C73.0046 195.74 73.3086 195.432 73.9166 195.432C74.5166 195.432 74.8166 195.74 74.8166 196.356V200.544H74.8406L76.5806 198.612C76.7566 198.412 76.9166 198.264 77.0606 198.168C77.2046 198.064 77.4046 198.012 77.6606 198.012C77.9086 198.012 78.1006 198.076 78.2366 198.204C78.3726 198.324 78.4406 198.48 78.4406 198.672C78.4406 198.856 78.3606 199.036 78.2006 199.212L76.6646 200.928L78.4046 202.932C78.5566 203.124 78.6206 203.312 78.5966 203.496C78.5806 203.672 78.5006 203.82 78.3566 203.94C78.2126 204.052 78.0286 204.108 77.8046 204.108C77.5246 204.108 77.3046 204.056 77.1446 203.952C76.9926 203.848 76.8286 203.688 76.6526 203.472L74.8406 201.456H74.8166V203.184C74.8166 203.8 74.5166 204.108 73.9166 204.108Z" fill="#664938"/>
<path d="M75.4047 252.132C74.3807 252.132 73.5967 251.752 73.0527 250.992C72.5167 250.232 72.2487 249.148 72.2487 247.74C72.2487 246.332 72.5167 245.26 73.0527 244.524C73.5967 243.78 74.3807 243.408 75.4047 243.408C76.4287 243.408 77.2087 243.78 77.7447 244.524C78.2887 245.26 78.5607 246.332 78.5607 247.74C78.5607 249.148 78.2887 250.232 77.7447 250.992C77.2087 251.752 76.4287 252.132 75.4047 252.132ZM75.4047 250.62C75.8687 250.62 76.2127 250.392 76.4367 249.936C76.6607 249.472 76.7727 248.74 76.7727 247.74C76.7727 246.74 76.6607 246.02 76.4367 245.58C76.2127 245.14 75.8687 244.92 75.4047 244.92C74.9407 244.92 74.5967 245.14 74.3727 245.58C74.1487 246.02 74.0367 246.74 74.0367 247.74C74.0367 248.74 74.1487 249.472 74.3727 249.936C74.5967 250.392 74.9407 250.62 75.4047 250.62Z" fill="#664938"/>
<path d="M107.684 281.096C107.412 281.104 107.2 281.032 107.048 280.88C106.896 280.728 106.82 280.532 106.82 280.292C106.82 280.108 106.876 279.948 106.988 279.812C107.092 279.676 107.248 279.6 107.456 279.584L107.804 279.56C108.444 279.52 108.764 279.184 108.764 278.552V273.38C108.764 273.076 108.844 272.844 109.004 272.684C109.164 272.516 109.392 272.432 109.688 272.432C110.312 272.432 110.624 272.748 110.624 273.38V278.528C110.624 280.12 109.784 280.968 108.104 281.072L107.684 281.096ZM114.153 281.132C113.713 281.132 113.325 281.048 112.989 280.88C112.653 280.712 112.385 280.484 112.185 280.196C111.993 279.908 111.897 279.584 111.897 279.224C111.897 278.8 112.009 278.46 112.233 278.204C112.457 277.948 112.821 277.768 113.325 277.664C113.829 277.552 114.497 277.496 115.329 277.496H115.761V277.292C115.761 276.94 115.681 276.692 115.521 276.548C115.361 276.396 115.089 276.32 114.705 276.32C114.489 276.32 114.253 276.348 113.997 276.404C113.741 276.452 113.465 276.536 113.169 276.656C112.945 276.752 112.757 276.76 112.605 276.68C112.453 276.592 112.353 276.464 112.305 276.296C112.257 276.12 112.269 275.944 112.341 275.768C112.421 275.592 112.573 275.464 112.797 275.384C113.173 275.24 113.525 275.14 113.853 275.084C114.189 275.02 114.497 274.988 114.777 274.988C115.689 274.988 116.369 275.196 116.817 275.612C117.265 276.02 117.489 276.656 117.489 277.52V280.184C117.489 280.8 117.209 281.108 116.649 281.108C116.081 281.108 115.797 280.8 115.797 280.184V280.112C115.677 280.424 115.473 280.672 115.185 280.856C114.905 281.04 114.561 281.132 114.153 281.132ZM114.561 279.92C114.897 279.92 115.181 279.804 115.413 279.572C115.645 279.34 115.761 279.04 115.761 278.672V278.432H115.341C114.725 278.432 114.289 278.488 114.033 278.6C113.777 278.704 113.649 278.888 113.649 279.152C113.649 279.376 113.725 279.56 113.877 279.704C114.037 279.848 114.265 279.92 114.561 279.92ZM119.753 281.108C119.145 281.108 118.841 280.8 118.841 280.184V275.924C118.841 275.316 119.137 275.012 119.729 275.012C120.321 275.012 120.617 275.316 120.617 275.924V275.972C120.817 275.652 121.085 275.408 121.421 275.24C121.757 275.072 122.133 274.988 122.549 274.988C123.245 274.988 123.765 275.192 124.109 275.6C124.453 276 124.625 276.62 124.625 277.46V280.184C124.625 280.8 124.321 281.108 123.713 281.108C123.425 281.108 123.201 281.028 123.041 280.868C122.889 280.708 122.813 280.48 122.813 280.184V277.544C122.813 277.136 122.737 276.844 122.585 276.668C122.433 276.484 122.209 276.392 121.913 276.392C121.529 276.392 121.221 276.512 120.989 276.752C120.765 276.992 120.653 277.312 120.653 277.712V280.184C120.653 280.8 120.353 281.108 119.753 281.108Z" fill="#664938"/>
<path d="M167.8 281.108C167.496 281.108 167.26 281.024 167.092 280.856C166.932 280.688 166.852 280.444 166.852 280.124V273.512C166.852 272.864 167.176 272.54 167.824 272.54H171.928C172.416 272.54 172.66 272.78 172.66 273.26C172.66 273.748 172.416 273.992 171.928 273.992H168.712V276.056H171.664C172.16 276.056 172.408 276.296 172.408 276.776C172.408 277.264 172.16 277.508 171.664 277.508H168.712V280.124C168.712 280.78 168.408 281.108 167.8 281.108ZM176.401 281.132C175.705 281.132 175.105 281.008 174.601 280.76C174.105 280.504 173.721 280.148 173.449 279.692C173.185 279.228 173.053 278.684 173.053 278.06C173.053 277.452 173.181 276.92 173.437 276.464C173.701 276 174.057 275.64 174.505 275.384C174.961 275.12 175.485 274.988 176.077 274.988C176.933 274.988 177.613 275.26 178.117 275.804C178.621 276.34 178.873 277.068 178.873 277.988C178.873 278.292 178.685 278.444 178.309 278.444H174.781C174.845 278.908 175.013 279.248 175.285 279.464C175.565 279.672 175.949 279.776 176.437 279.776C176.629 279.776 176.845 279.756 177.085 279.716C177.333 279.668 177.569 279.588 177.793 279.476C178.025 279.364 178.221 279.344 178.381 279.416C178.541 279.48 178.649 279.592 178.705 279.752C178.769 279.912 178.769 280.08 178.705 280.256C178.649 280.424 178.517 280.564 178.309 280.676C178.029 280.828 177.717 280.94 177.373 281.012C177.037 281.092 176.713 281.132 176.401 281.132ZM176.149 276.188C175.765 276.188 175.453 276.304 175.213 276.536C174.981 276.768 174.837 277.092 174.781 277.508H177.373C177.325 276.628 176.917 276.188 176.149 276.188ZM183.562 281.132C183.154 281.132 182.786 281.044 182.458 280.868C182.13 280.692 181.882 280.452 181.714 280.148V280.184C181.714 280.8 181.418 281.108 180.826 281.108C180.226 281.108 179.926 280.8 179.926 280.184V273.356C179.926 272.74 180.23 272.432 180.838 272.432C181.438 272.432 181.738 272.74 181.738 273.356V275.9C181.914 275.62 182.162 275.4 182.482 275.24C182.81 275.072 183.17 274.988 183.562 274.988C184.074 274.988 184.522 275.112 184.906 275.36C185.298 275.608 185.602 275.96 185.818 276.416C186.034 276.872 186.142 277.416 186.142 278.048C186.142 278.68 186.034 279.228 185.818 279.692C185.602 280.148 185.298 280.504 184.906 280.76C184.522 281.008 184.074 281.132 183.562 281.132ZM183.022 279.776C183.406 279.776 183.718 279.636 183.958 279.356C184.198 279.076 184.318 278.64 184.318 278.048C184.318 277.464 184.198 277.036 183.958 276.764C183.718 276.484 183.406 276.344 183.022 276.344C182.63 276.344 182.314 276.484 182.074 276.764C181.834 277.036 181.714 277.464 181.714 278.048C181.714 278.64 181.834 279.076 182.074 279.356C182.314 279.636 182.63 279.776 183.022 279.776Z" fill="#664938"/>
<path d="M228.716 281.108C228.444 281.108 228.236 281.032 228.092 280.88C227.948 280.728 227.876 280.516 227.876 280.244V273.296C227.876 273.016 227.952 272.804 228.104 272.66C228.256 272.508 228.472 272.432 228.752 272.432C228.992 272.432 229.18 272.48 229.316 272.576C229.46 272.672 229.592 272.828 229.712 273.044L232.28 277.736L234.848 273.044C234.968 272.828 235.096 272.672 235.232 272.576C235.376 272.48 235.564 272.432 235.796 272.432C236.068 272.432 236.276 272.508 236.42 272.66C236.572 272.804 236.648 273.016 236.648 273.296V280.244C236.648 280.82 236.368 281.108 235.808 281.108C235.24 281.108 234.956 280.82 234.956 280.244V275.84L232.988 279.38C232.892 279.532 232.788 279.648 232.676 279.728C232.572 279.8 232.432 279.836 232.256 279.836C232.08 279.836 231.936 279.8 231.824 279.728C231.712 279.648 231.612 279.532 231.524 279.38L229.556 275.876V280.244C229.556 280.82 229.276 281.108 228.716 281.108ZM240.2 281.132C239.76 281.132 239.372 281.048 239.036 280.88C238.7 280.712 238.432 280.484 238.232 280.196C238.04 279.908 237.944 279.584 237.944 279.224C237.944 278.8 238.056 278.46 238.28 278.204C238.504 277.948 238.868 277.768 239.372 277.664C239.876 277.552 240.544 277.496 241.376 277.496H241.808V277.292C241.808 276.94 241.728 276.692 241.568 276.548C241.408 276.396 241.136 276.32 240.752 276.32C240.536 276.32 240.3 276.348 240.044 276.404C239.788 276.452 239.512 276.536 239.216 276.656C238.992 276.752 238.804 276.76 238.652 276.68C238.5 276.592 238.4 276.464 238.352 276.296C238.304 276.12 238.316 275.944 238.388 275.768C238.468 275.592 238.62 275.464 238.844 275.384C239.22 275.24 239.572 275.14 239.9 275.084C240.236 275.02 240.544 274.988 240.824 274.988C241.736 274.988 242.416 275.196 242.864 275.612C243.312 276.02 243.536 276.656 243.536 277.52V280.184C243.536 280.8 243.256 281.108 242.696 281.108C242.128 281.108 241.844 280.8 241.844 280.184V280.112C241.724 280.424 241.52 280.672 241.232 280.856C240.952 281.04 240.608 281.132 240.2 281.132ZM240.608 279.92C240.944 279.92 241.228 279.804 241.46 279.572C241.692 279.34 241.808 279.04 241.808 278.672V278.432H241.388C240.772 278.432 240.336 278.488 240.08 278.6C239.824 278.704 239.696 278.888 239.696 279.152C239.696 279.376 239.772 279.56 239.924 279.704C240.084 279.848 240.312 279.92 240.608 279.92ZM245.823 281.108C245.199 281.108 244.887 280.8 244.887 280.184V275.924C244.887 275.316 245.183 275.012 245.775 275.012C246.367 275.012 246.663 275.316 246.663 275.924V276.14C246.951 275.428 247.547 275.044 248.451 274.988C248.651 274.972 248.803 275.024 248.907 275.144C249.019 275.256 249.079 275.444 249.087 275.708C249.103 275.956 249.051 276.152 248.931 276.296C248.819 276.44 248.627 276.528 248.355 276.56L248.079 276.584C247.183 276.672 246.735 277.128 246.735 277.952V280.184C246.735 280.8 246.431 281.108 245.823 281.108Z" fill="#664938"/>
<path d="M291.092 281.108C290.756 281.108 290.516 280.996 290.372 280.772C290.228 280.548 290.232 280.272 290.384 279.944L293.456 273.212C293.584 272.94 293.736 272.744 293.912 272.624C294.088 272.496 294.292 272.432 294.524 272.432C294.756 272.432 294.96 272.496 295.136 272.624C295.312 272.744 295.46 272.94 295.58 273.212L298.676 279.944C298.828 280.28 298.832 280.56 298.688 280.784C298.552 281 298.328 281.108 298.016 281.108C297.744 281.108 297.532 281.044 297.38 280.916C297.236 280.788 297.108 280.588 296.996 280.316L296.492 279.164H292.544L292.052 280.316C291.932 280.596 291.804 280.8 291.668 280.928C291.532 281.048 291.34 281.108 291.092 281.108ZM294.5 274.52L293.168 277.712H295.88L294.524 274.52H294.5ZM300.643 283.268C300.035 283.268 299.731 282.96 299.731 282.344V275.924C299.731 275.316 300.027 275.012 300.619 275.012C301.219 275.012 301.519 275.316 301.519 275.924V275.96C301.687 275.664 301.935 275.428 302.263 275.252C302.591 275.076 302.959 274.988 303.367 274.988C303.879 274.988 304.327 275.112 304.711 275.36C305.103 275.608 305.407 275.96 305.623 276.416C305.839 276.872 305.947 277.416 305.947 278.048C305.947 278.68 305.839 279.228 305.623 279.692C305.407 280.148 305.103 280.504 304.711 280.76C304.327 281.008 303.879 281.132 303.367 281.132C302.975 281.132 302.615 281.048 302.287 280.88C301.967 280.712 301.719 280.488 301.543 280.208V282.344C301.543 282.96 301.243 283.268 300.643 283.268ZM302.827 279.776C303.211 279.776 303.523 279.636 303.763 279.356C304.003 279.076 304.123 278.64 304.123 278.048C304.123 277.464 304.003 277.036 303.763 276.764C303.523 276.484 303.211 276.344 302.827 276.344C302.435 276.344 302.119 276.484 301.879 276.764C301.639 277.036 301.519 277.464 301.519 278.048C301.519 278.64 301.639 279.076 301.879 279.356C302.119 279.636 302.435 279.776 302.827 279.776ZM307.991 281.108C307.367 281.108 307.055 280.8 307.055 280.184V275.924C307.055 275.316 307.351 275.012 307.943 275.012C308.535 275.012 308.831 275.316 308.831 275.924V276.14C309.119 275.428 309.715 275.044 310.619 274.988C310.819 274.972 310.971 275.024 311.075 275.144C311.187 275.256 311.247 275.444 311.255 275.708C311.271 275.956 311.219 276.152 311.099 276.296C310.987 276.44 310.795 276.528 310.523 276.56L310.247 276.584C309.351 276.672 308.903 277.128 308.903 277.952V280.184C308.903 280.8 308.599 281.108 307.991 281.108Z" fill="#664938"/>
<path d="M353.716 281.108C353.444 281.108 353.236 281.032 353.092 280.88C352.948 280.728 352.876 280.516 352.876 280.244V273.296C352.876 273.016 352.952 272.804 353.104 272.66C353.256 272.508 353.472 272.432 353.752 272.432C353.992 272.432 354.18 272.48 354.316 272.576C354.46 272.672 354.592 272.828 354.712 273.044L357.28 277.736L359.848 273.044C359.968 272.828 360.096 272.672 360.232 272.576C360.376 272.48 360.564 272.432 360.796 272.432C361.068 272.432 361.276 272.508 361.42 272.66C361.572 272.804 361.648 273.016 361.648 273.296V280.244C361.648 280.82 361.368 281.108 360.808 281.108C360.24 281.108 359.956 280.82 359.956 280.244V275.84L357.988 279.38C357.892 279.532 357.788 279.648 357.676 279.728C357.572 279.8 357.432 279.836 357.256 279.836C357.08 279.836 356.936 279.8 356.824 279.728C356.712 279.648 356.612 279.532 356.524 279.38L354.556 275.876V280.244C354.556 280.82 354.276 281.108 353.716 281.108ZM365.2 281.132C364.76 281.132 364.372 281.048 364.036 280.88C363.7 280.712 363.432 280.484 363.232 280.196C363.04 279.908 362.944 279.584 362.944 279.224C362.944 278.8 363.056 278.46 363.28 278.204C363.504 277.948 363.868 277.768 364.372 277.664C364.876 277.552 365.544 277.496 366.376 277.496H366.808V277.292C366.808 276.94 366.728 276.692 366.568 276.548C366.408 276.396 366.136 276.32 365.752 276.32C365.536 276.32 365.3 276.348 365.044 276.404C364.788 276.452 364.512 276.536 364.216 276.656C363.992 276.752 363.804 276.76 363.652 276.68C363.5 276.592 363.4 276.464 363.352 276.296C363.304 276.12 363.316 275.944 363.388 275.768C363.468 275.592 363.62 275.464 363.844 275.384C364.22 275.24 364.572 275.14 364.9 275.084C365.236 275.02 365.544 274.988 365.824 274.988C366.736 274.988 367.416 275.196 367.864 275.612C368.312 276.02 368.536 276.656 368.536 277.52V280.184C368.536 280.8 368.256 281.108 367.696 281.108C367.128 281.108 366.844 280.8 366.844 280.184V280.112C366.724 280.424 366.52 280.672 366.232 280.856C365.952 281.04 365.608 281.132 365.2 281.132ZM365.608 279.92C365.944 279.92 366.228 279.804 366.46 279.572C366.692 279.34 366.808 279.04 366.808 278.672V278.432H366.388C365.772 278.432 365.336 278.488 365.08 278.6C364.824 278.704 364.696 278.888 364.696 279.152C364.696 279.376 364.772 279.56 364.924 279.704C365.084 279.848 365.312 279.92 365.608 279.92ZM371.437 283.268C371.117 283.268 370.889 283.148 370.753 282.908C370.625 282.676 370.633 282.404 370.777 282.092L371.413 280.676L369.457 276.188C369.329 275.876 369.329 275.604 369.457 275.372C369.593 275.132 369.861 275.012 370.261 275.012C370.477 275.012 370.649 275.064 370.777 275.168C370.913 275.264 371.037 275.452 371.149 275.732L372.373 278.852L373.645 275.72C373.757 275.448 373.881 275.264 374.017 275.168C374.161 275.064 374.353 275.012 374.593 275.012C374.897 275.012 375.109 275.132 375.229 275.372C375.357 275.604 375.353 275.872 375.217 276.176L372.397 282.572C372.277 282.844 372.141 283.028 371.989 283.124C371.845 283.22 371.661 283.268 371.437 283.268Z" fill="#664938"/>
<path d="M416.684 281.096C416.412 281.104 416.2 281.032 416.048 280.88C415.896 280.728 415.82 280.532 415.82 280.292C415.82 280.108 415.876 279.948 415.988 279.812C416.092 279.676 416.248 279.6 416.456 279.584L416.804 279.56C417.444 279.52 417.764 279.184 417.764 278.552V273.38C417.764 273.076 417.844 272.844 418.004 272.684C418.164 272.516 418.392 272.432 418.688 272.432C419.312 272.432 419.624 272.748 419.624 273.38V278.528C419.624 280.12 418.784 280.968 417.104 281.072L416.684 281.096ZM423.333 281.132C422.581 281.132 422.025 280.924 421.665 280.508C421.313 280.092 421.137 279.468 421.137 278.636V275.924C421.137 275.316 421.437 275.012 422.037 275.012C422.645 275.012 422.949 275.316 422.949 275.924V278.684C422.949 279.38 423.249 279.728 423.849 279.728C424.193 279.728 424.473 279.608 424.689 279.368C424.913 279.12 425.025 278.796 425.025 278.396V275.924C425.025 275.316 425.325 275.012 425.925 275.012C426.533 275.012 426.837 275.316 426.837 275.924V280.184C426.837 280.8 426.545 281.108 425.961 281.108C425.673 281.108 425.453 281.028 425.301 280.868C425.149 280.708 425.073 280.484 425.073 280.196C424.681 280.82 424.101 281.132 423.333 281.132ZM429.151 281.108C428.543 281.108 428.239 280.8 428.239 280.184V275.924C428.239 275.316 428.535 275.012 429.127 275.012C429.719 275.012 430.015 275.316 430.015 275.924V275.972C430.215 275.652 430.483 275.408 430.819 275.24C431.155 275.072 431.531 274.988 431.947 274.988C432.643 274.988 433.163 275.192 433.507 275.6C433.851 276 434.023 276.62 434.023 277.46V280.184C434.023 280.8 433.719 281.108 433.111 281.108C432.823 281.108 432.599 281.028 432.439 280.868C432.287 280.708 432.211 280.48 432.211 280.184V277.544C432.211 277.136 432.135 276.844 431.983 276.668C431.831 276.484 431.607 276.392 431.311 276.392C430.927 276.392 430.619 276.512 430.387 276.752C430.163 276.992 430.051 277.312 430.051 277.712V280.184C430.051 280.8 429.751 281.108 429.151 281.108Z" fill="#664938"/>
<path d="M475.684 281.096C475.412 281.104 475.2 281.032 475.048 280.88C474.896 280.728 474.82 280.532 474.82 280.292C474.82 280.108 474.876 279.948 474.988 279.812C475.092 279.676 475.248 279.6 475.456 279.584L475.804 279.56C476.444 279.52 476.764 279.184 476.764 278.552V273.38C476.764 273.076 476.844 272.844 477.004 272.684C477.164 272.516 477.392 272.432 477.688 272.432C478.312 272.432 478.624 272.748 478.624 273.38V278.528C478.624 280.12 477.784 280.968 476.104 281.072L475.684 281.096ZM482.333 281.132C481.581 281.132 481.025 280.924 480.665 280.508C480.313 280.092 480.137 279.468 480.137 278.636V275.924C480.137 275.316 480.437 275.012 481.037 275.012C481.645 275.012 481.949 275.316 481.949 275.924V278.684C481.949 279.38 482.249 279.728 482.849 279.728C483.193 279.728 483.473 279.608 483.689 279.368C483.913 279.12 484.025 278.796 484.025 278.396V275.924C484.025 275.316 484.325 275.012 484.925 275.012C485.533 275.012 485.837 275.316 485.837 275.924V280.184C485.837 280.8 485.545 281.108 484.961 281.108C484.673 281.108 484.453 281.028 484.301 280.868C484.149 280.708 484.073 280.484 484.073 280.196C483.681 280.82 483.101 281.132 482.333 281.132ZM489.363 281.132C487.947 281.132 487.239 280.344 487.239 278.768V273.356C487.239 272.74 487.543 272.432 488.151 272.432C488.751 272.432 489.051 272.74 489.051 273.356V278.696C489.051 279.024 489.119 279.268 489.255 279.428C489.399 279.58 489.587 279.656 489.819 279.656C489.883 279.656 489.943 279.652 489.999 279.644C490.063 279.636 490.123 279.632 490.179 279.632C490.307 279.624 490.395 279.664 490.443 279.752C490.499 279.84 490.527 280.02 490.527 280.292C490.527 280.756 490.331 281.02 489.939 281.084C489.859 281.092 489.767 281.1 489.663 281.108C489.559 281.124 489.459 281.132 489.363 281.132Z" fill="#664938"/>
<path d="M532.092 281.108C531.756 281.108 531.516 280.996 531.372 280.772C531.228 280.548 531.232 280.272 531.384 279.944L534.456 273.212C534.584 272.94 534.736 272.744 534.912 272.624C535.088 272.496 535.292 272.432 535.524 272.432C535.756 272.432 535.96 272.496 536.136 272.624C536.312 272.744 536.46 272.94 536.58 273.212L539.676 279.944C539.828 280.28 539.832 280.56 539.688 280.784C539.552 281 539.328 281.108 539.016 281.108C538.744 281.108 538.532 281.044 538.38 280.916C538.236 280.788 538.108 280.588 537.996 280.316L537.492 279.164H533.544L533.052 280.316C532.932 280.596 532.804 280.8 532.668 280.928C532.532 281.048 532.34 281.108 532.092 281.108ZM535.5 274.52L534.168 277.712H536.88L535.524 274.52H535.5ZM542.903 281.132C542.151 281.132 541.595 280.924 541.235 280.508C540.883 280.092 540.707 279.468 540.707 278.636V275.924C540.707 275.316 541.007 275.012 541.607 275.012C542.215 275.012 542.519 275.316 542.519 275.924V278.684C542.519 279.38 542.819 279.728 543.419 279.728C543.763 279.728 544.043 279.608 544.259 279.368C544.483 279.12 544.595 278.796 544.595 278.396V275.924C544.595 275.316 544.895 275.012 545.495 275.012C546.103 275.012 546.407 275.316 546.407 275.924V280.184C546.407 280.8 546.115 281.108 545.531 281.108C545.243 281.108 545.023 281.028 544.871 280.868C544.719 280.708 544.643 280.484 544.643 280.196C544.251 280.82 543.671 281.132 542.903 281.132ZM550.641 283.292C550.209 283.292 549.797 283.256 549.405 283.184C549.013 283.112 548.661 283.004 548.349 282.86C548.117 282.764 547.969 282.628 547.905 282.452C547.841 282.276 547.841 282.104 547.905 281.936C547.977 281.768 548.085 281.64 548.229 281.552C548.381 281.472 548.549 281.472 548.733 281.552C549.085 281.712 549.409 281.816 549.705 281.864C550.009 281.912 550.269 281.936 550.485 281.936C551.509 281.936 552.021 281.464 552.021 280.52V279.848C551.861 280.152 551.609 280.396 551.265 280.58C550.921 280.764 550.545 280.856 550.137 280.856C549.609 280.856 549.149 280.736 548.757 280.496C548.365 280.248 548.061 279.904 547.845 279.464C547.629 279.024 547.521 278.508 547.521 277.916C547.521 277.332 547.629 276.82 547.845 276.38C548.061 275.94 548.365 275.6 548.757 275.36C549.149 275.112 549.609 274.988 550.137 274.988C550.545 274.988 550.917 275.076 551.253 275.252C551.589 275.428 551.837 275.66 551.997 275.948V275.924C551.997 275.628 552.073 275.404 552.225 275.252C552.385 275.092 552.609 275.012 552.897 275.012C553.489 275.012 553.785 275.316 553.785 275.924V280.316C553.785 281.308 553.517 282.052 552.981 282.548C552.445 283.044 551.665 283.292 550.641 283.292ZM550.677 279.5C551.077 279.5 551.397 279.36 551.637 279.08C551.885 278.8 552.009 278.412 552.009 277.916C552.009 277.42 551.885 277.036 551.637 276.764C551.397 276.484 551.077 276.344 550.677 276.344C550.269 276.344 549.945 276.484 549.705 276.764C549.465 277.036 549.345 277.42 549.345 277.916C549.345 278.412 549.465 278.8 549.705 279.08C549.945 279.36 550.269 279.5 550.677 279.5Z" fill="#664938"/>
<path d="M598.876 281.132C598.364 281.132 597.852 281.076 597.34 280.964C596.828 280.852 596.384 280.688 596.008 280.472C595.784 280.352 595.644 280.192 595.588 279.992C595.532 279.784 595.544 279.584 595.624 279.392C595.704 279.2 595.832 279.064 596.008 278.984C596.184 278.904 596.396 278.924 596.644 279.044C596.964 279.228 597.32 279.364 597.712 279.452C598.104 279.54 598.492 279.584 598.876 279.584C599.452 279.584 599.864 279.496 600.112 279.32C600.368 279.136 600.496 278.908 600.496 278.636C600.496 278.404 600.408 278.22 600.232 278.084C600.056 277.948 599.748 277.832 599.308 277.736L597.952 277.448C596.44 277.128 595.684 276.344 595.684 275.096C595.684 274.56 595.828 274.092 596.116 273.692C596.404 273.284 596.804 272.968 597.316 272.744C597.836 272.52 598.436 272.408 599.116 272.408C599.564 272.408 600.004 272.464 600.436 272.576C600.868 272.68 601.248 272.836 601.576 273.044C601.776 273.164 601.9 273.32 601.948 273.512C601.996 273.704 601.98 273.888 601.9 274.064C601.828 274.24 601.7 274.364 601.516 274.436C601.34 274.508 601.12 274.48 600.856 274.352C600.592 274.216 600.312 274.116 600.016 274.052C599.72 273.988 599.416 273.956 599.104 273.956C598.6 273.956 598.208 274.056 597.928 274.256C597.656 274.448 597.52 274.7 597.52 275.012C597.52 275.244 597.604 275.432 597.772 275.576C597.94 275.72 598.232 275.836 598.648 275.924L600.004 276.212C601.556 276.548 602.332 277.308 602.332 278.492C602.332 279.02 602.188 279.484 601.9 279.884C601.62 280.276 601.22 280.584 600.7 280.808C600.188 281.024 599.58 281.132 598.876 281.132ZM606.444 281.132C605.748 281.132 605.148 281.008 604.644 280.76C604.148 280.504 603.764 280.148 603.492 279.692C603.228 279.228 603.096 278.684 603.096 278.06C603.096 277.452 603.224 276.92 603.479 276.464C603.744 276 604.1 275.64 604.548 275.384C605.004 275.12 605.528 274.988 606.12 274.988C606.976 274.988 607.656 275.26 608.16 275.804C608.664 276.34 608.916 277.068 608.916 277.988C608.916 278.292 608.728 278.444 608.352 278.444H604.824C604.888 278.908 605.056 279.248 605.328 279.464C605.608 279.672 605.992 279.776 606.48 279.776C606.672 279.776 606.888 279.756 607.128 279.716C607.376 279.668 607.612 279.588 607.836 279.476C608.068 279.364 608.264 279.344 608.424 279.416C608.584 279.48 608.692 279.592 608.747 279.752C608.812 279.912 608.812 280.08 608.747 280.256C608.692 280.424 608.56 280.564 608.352 280.676C608.072 280.828 607.76 280.94 607.416 281.012C607.08 281.092 606.756 281.132 606.444 281.132ZM606.192 276.188C605.808 276.188 605.496 276.304 605.256 276.536C605.024 276.768 604.88 277.092 604.824 277.508H607.416C607.368 276.628 606.96 276.188 606.192 276.188ZM610.881 283.268C610.273 283.268 609.969 282.96 609.969 282.344V275.924C609.969 275.316 610.265 275.012 610.857 275.012C611.457 275.012 611.757 275.316 611.757 275.924V275.96C611.925 275.664 612.173 275.428 612.501 275.252C612.829 275.076 613.197 274.988 613.605 274.988C614.117 274.988 614.565 275.112 614.949 275.36C615.341 275.608 615.645 275.96 615.861 276.416C616.077 276.872 616.185 277.416 616.185 278.048C616.185 278.68 616.077 279.228 615.861 279.692C615.645 280.148 615.341 280.504 614.949 280.76C614.565 281.008 614.117 281.132 613.605 281.132C613.213 281.132 612.853 281.048 612.525 280.88C612.205 280.712 611.957 280.488 611.781 280.208V282.344C611.781 282.96 611.481 283.268 610.881 283.268ZM613.065 279.776C613.449 279.776 613.761 279.636 614.001 279.356C614.241 279.076 614.361 278.64 614.361 278.048C614.361 277.464 614.241 277.036 614.001 276.764C613.761 276.484 613.449 276.344 613.065 276.344C612.673 276.344 612.357 276.484 612.117 276.764C611.877 277.036 611.757 277.464 611.757 278.048C611.757 278.64 611.877 279.076 612.117 279.356C612.357 279.636 612.673 279.776 613.065 279.776Z" fill="#664938"/>
<path d="M661.776 281.132C660.944 281.132 660.212 280.952 659.58 280.592C658.956 280.224 658.468 279.716 658.116 279.068C657.772 278.412 657.6 277.644 657.6 276.764C657.6 275.884 657.772 275.12 658.116 274.472C658.468 273.816 658.956 273.308 659.58 272.948C660.204 272.588 660.936 272.408 661.776 272.408C662.616 272.408 663.348 272.588 663.972 272.948C664.604 273.308 665.092 273.816 665.436 274.472C665.788 275.12 665.964 275.88 665.964 276.752C665.964 277.632 665.788 278.4 665.436 279.056C665.092 279.712 664.604 280.224 663.972 280.592C663.348 280.952 662.616 281.132 661.776 281.132ZM661.776 279.548C662.48 279.548 663.028 279.304 663.42 278.816C663.82 278.32 664.02 277.636 664.02 276.764C664.02 275.884 663.824 275.204 663.432 274.724C663.04 274.236 662.488 273.992 661.776 273.992C661.08 273.992 660.532 274.236 660.132 274.724C659.74 275.204 659.544 275.884 659.544 276.764C659.544 277.636 659.74 278.32 660.132 278.816C660.532 279.304 661.08 279.548 661.776 279.548ZM670.115 281.132C669.475 281.132 668.915 281.008 668.435 280.76C667.963 280.504 667.599 280.144 667.343 279.68C667.087 279.216 666.959 278.668 666.959 278.036C666.959 277.404 667.087 276.86 667.343 276.404C667.599 275.948 667.963 275.6 668.435 275.36C668.915 275.112 669.475 274.988 670.115 274.988C670.363 274.988 670.627 275.02 670.907 275.084C671.195 275.14 671.471 275.24 671.735 275.384C671.935 275.48 672.059 275.616 672.107 275.792C672.155 275.96 672.143 276.128 672.071 276.296C672.007 276.464 671.899 276.588 671.747 276.668C671.603 276.74 671.431 276.724 671.231 276.62C670.911 276.452 670.599 276.368 670.295 276.368C669.823 276.368 669.455 276.516 669.191 276.812C668.935 277.1 668.807 277.512 668.807 278.048C668.807 278.576 668.935 278.992 669.191 279.296C669.455 279.592 669.823 279.74 670.295 279.74C670.439 279.74 670.591 279.724 670.751 279.692C670.911 279.652 671.071 279.588 671.231 279.5C671.431 279.396 671.603 279.384 671.747 279.464C671.899 279.544 672.003 279.668 672.059 279.836C672.115 279.996 672.119 280.164 672.071 280.34C672.023 280.516 671.903 280.652 671.711 280.748C671.439 280.884 671.167 280.98 670.895 281.036C670.623 281.1 670.363 281.132 670.115 281.132ZM675.904 281.132C674.248 281.132 673.42 280.328 673.42 278.72V276.464H672.916C672.444 276.464 672.208 276.24 672.208 275.792C672.208 275.336 672.444 275.108 672.916 275.108H673.42V274.196C673.42 273.58 673.724 273.272 674.332 273.272C674.932 273.272 675.232 273.58 675.232 274.196V275.108H676.372C676.836 275.108 677.068 275.336 677.068 275.792C677.068 276.24 676.836 276.464 676.372 276.464H675.232V278.648C675.232 278.984 675.308 279.236 675.46 279.404C675.62 279.572 675.872 279.656 676.216 279.656C676.336 279.656 676.448 279.644 676.552 279.62C676.656 279.596 676.752 279.58 676.84 279.572C676.952 279.564 677.044 279.6 677.116 279.68C677.188 279.76 677.224 279.924 677.224 280.172C677.224 280.372 677.192 280.544 677.128 280.688C677.064 280.824 676.952 280.924 676.792 280.988C676.688 281.028 676.544 281.06 676.36 281.084C676.184 281.116 676.032 281.132 675.904 281.132Z" fill="#664938"/>
<path d="M719.716 281.108C719.14 281.108 718.852 280.808 718.852 280.208V273.368C718.852 273.064 718.924 272.832 719.068 272.672C719.22 272.512 719.42 272.432 719.668 272.432C719.876 272.432 720.04 272.476 720.16 272.564C720.28 272.644 720.416 272.78 720.568 272.972L724.456 277.928V273.32C724.456 272.728 724.744 272.432 725.32 272.432C725.896 272.432 726.184 272.728 726.184 273.32V280.244C726.184 280.508 726.116 280.72 725.98 280.88C725.844 281.032 725.66 281.108 725.428 281.108C725.204 281.108 725.024 281.064 724.888 280.976C724.76 280.888 724.62 280.748 724.468 280.556L720.58 275.6V280.208C720.58 280.808 720.292 281.108 719.716 281.108ZM730.563 281.132C729.931 281.132 729.379 281.008 728.907 280.76C728.443 280.504 728.083 280.148 727.827 279.692C727.571 279.228 727.443 278.68 727.443 278.048C727.443 277.424 727.571 276.884 727.827 276.428C728.083 275.964 728.443 275.608 728.907 275.36C729.379 275.112 729.931 274.988 730.563 274.988C731.195 274.988 731.743 275.112 732.207 275.36C732.679 275.608 733.043 275.964 733.299 276.428C733.563 276.884 733.695 277.424 733.695 278.048C733.695 278.68 733.563 279.228 733.299 279.692C733.043 280.148 732.679 280.504 732.207 280.76C731.743 281.008 731.195 281.132 730.563 281.132ZM730.563 279.776C730.947 279.776 731.259 279.636 731.499 279.356C731.747 279.076 731.871 278.64 731.871 278.048C731.871 277.464 731.747 277.036 731.499 276.764C731.259 276.484 730.947 276.344 730.563 276.344C730.179 276.344 729.867 276.484 729.627 276.764C729.387 277.036 729.267 277.464 729.267 278.048C729.267 278.64 729.387 279.076 729.627 279.356C729.867 279.636 730.179 279.776 730.563 279.776ZM737.153 281.108C736.681 281.108 736.337 280.86 736.121 280.364L734.309 276.188C734.173 275.876 734.169 275.604 734.297 275.372C734.425 275.132 734.689 275.012 735.089 275.012C735.305 275.012 735.481 275.064 735.617 275.168C735.753 275.264 735.873 275.452 735.977 275.732L737.213 278.852L738.485 275.72C738.597 275.448 738.721 275.264 738.857 275.168C738.993 275.064 739.181 275.012 739.421 275.012C739.725 275.012 739.941 275.132 740.069 275.372C740.197 275.604 740.189 275.872 740.045 276.176L738.197 280.364C737.989 280.86 737.641 281.108 737.153 281.108Z" fill="#664938"/>
<path d="M782.824 281C782.176 281 781.852 280.676 781.852 280.028V273.512C781.852 272.864 782.176 272.54 782.824 272.54H785.164C786.604 272.54 787.72 272.908 788.512 273.644C789.304 274.372 789.7 275.412 789.7 276.764C789.7 278.116 789.304 279.16 788.512 279.896C787.72 280.632 786.604 281 785.164 281H782.824ZM783.712 279.476H785.056C786.856 279.476 787.756 278.572 787.756 276.764C787.756 274.964 786.856 274.064 785.056 274.064H783.712V279.476ZM794.049 281.132C793.353 281.132 792.753 281.008 792.249 280.76C791.753 280.504 791.369 280.148 791.097 279.692C790.833 279.228 790.701 278.684 790.701 278.06C790.701 277.452 790.829 276.92 791.085 276.464C791.349 276 791.705 275.64 792.153 275.384C792.609 275.12 793.133 274.988 793.725 274.988C794.581 274.988 795.261 275.26 795.765 275.804C796.269 276.34 796.521 277.068 796.521 277.988C796.521 278.292 796.333 278.444 795.957 278.444H792.429C792.493 278.908 792.661 279.248 792.933 279.464C793.213 279.672 793.597 279.776 794.085 279.776C794.277 279.776 794.493 279.756 794.733 279.716C794.981 279.668 795.217 279.588 795.441 279.476C795.673 279.364 795.869 279.344 796.029 279.416C796.189 279.48 796.297 279.592 796.353 279.752C796.417 279.912 796.417 280.08 796.353 280.256C796.297 280.424 796.165 280.564 795.957 280.676C795.677 280.828 795.365 280.94 795.021 281.012C794.685 281.092 794.361 281.132 794.049 281.132ZM793.797 276.188C793.413 276.188 793.101 276.304 792.861 276.536C792.629 276.768 792.485 277.092 792.429 277.508H795.021C794.973 276.628 794.565 276.188 793.797 276.188ZM800.443 281.132C799.803 281.132 799.243 281.008 798.763 280.76C798.291 280.504 797.927 280.144 797.671 279.68C797.415 279.216 797.287 278.668 797.287 278.036C797.287 277.404 797.415 276.86 797.671 276.404C797.927 275.948 798.291 275.6 798.763 275.36C799.243 275.112 799.803 274.988 800.443 274.988C800.691 274.988 800.955 275.02 801.235 275.084C801.523 275.14 801.799 275.24 802.063 275.384C802.263 275.48 802.387 275.616 802.435 275.792C802.483 275.96 802.471 276.128 802.399 276.296C802.335 276.464 802.227 276.588 802.075 276.668C801.931 276.74 801.759 276.724 801.559 276.62C801.239 276.452 800.927 276.368 800.623 276.368C800.151 276.368 799.783 276.516 799.519 276.812C799.263 277.1 799.135 277.512 799.135 278.048C799.135 278.576 799.263 278.992 799.519 279.296C799.783 279.592 800.151 279.74 800.623 279.74C800.767 279.74 800.919 279.724 801.079 279.692C801.239 279.652 801.399 279.588 801.559 279.5C801.759 279.396 801.931 279.384 802.075 279.464C802.227 279.544 802.331 279.668 802.387 279.836C802.443 279.996 802.447 280.164 802.399 280.34C802.351 280.516 802.231 280.652 802.039 280.748C801.767 280.884 801.495 280.98 801.223 281.036C800.951 281.1 800.691 281.132 800.443 281.132Z" fill="#664938"/>
<line x1="101" y1="107" x2="806" y2="107" stroke="#FFD9C2" stroke-width="4" stroke-linecap="round" stroke-dasharray="12 12"/>
<line x1="101" y1="154" x2="806" y2="154" stroke="#FFD9C2" stroke-width="4" stroke-linecap="round" stroke-dasharray="12 12"/>
<line x1="101" y1="200" x2="806" y2="200" stroke="#FFD9C2" stroke-width="4" stroke-linecap="round" stroke-dasharray="12 12"/>
<line x1="101" y1="246" x2="806" y2="246" stroke="#FFD9C2" stroke-width="4" stroke-linecap="round" stroke-dasharray="12 12"/>
<path fill-rule="evenodd" clip-rule="evenodd" d="M101 135.745C158.206 134.207 189.706 180.59 189.706 180.59C189.706 180.59 216.861 220.566 241.482 176.234C265.016 128.826 271.895 95 295.067 95C321.498 95.5125 323.207 178.796 360.239 178.796C397.272 178.796 399.342 103.2 442.79 103.456C442.79 103.456 442.79 248.242 442.79 248.242L101 248.498C101 248.498 101 135.745 101 135.745Z" fill="url(#paint0_linear_94_78)"/>
<path fill-rule="evenodd" clip-rule="evenodd" d="M785 135.745C727.794 134.207 696.294 180.59 696.294 180.59C696.294 180.59 669.139 220.566 644.518 176.234C620.984 128.826 614.105 95 590.933 95C564.502 95.5125 562.793 178.796 525.761 178.796C488.728 178.796 486.658 103.2 443.21 103.456C443.21 103.456 443.21 248.242 443.21 248.242L785 248.498C785 248.498 785 135.745 785 135.745Z" fill="url(#paint1_linear_94_78)"/>
<path d="M101 136.532C158.242 135.003 189.761 181.144 189.761 181.144C189.761 181.144 216.932 220.911 241.568 176.81C265.117 129.65 272 96 295.186 96C325.915 96.5924 323.343 179.359 360.398 179.359C397.453 179.359 399.163 104.412 443 104.412" stroke="#FEF5DA" stroke-width="3"/>
<path d="M785 136.532C727.758 135.003 696.239 181.144 696.239 181.144C696.239 181.144 669.068 220.911 644.432 176.81C620.883 129.65 614 96 590.814 96C560.085 96.5924 562.657 179.359 525.602 179.359C488.547 179.359 486.837 104.412 443 104.412" stroke="#FEF5DA" stroke-width="3"/>
<circle r="6" transform="matrix(-1 0 0 1 785 136)" fill="#FFD4AD" stroke="#FEF5DA" stroke-width="2.4"/>
<circle r="2" transform="matrix(-1 0 0 1 785 136)" fill="#FEF5DA"/>
<path d="M42.94 39.12C42.4733 39.12 42.1 38.98 41.82 38.7C41.54 38.42 41.4 38.04 41.4 37.56V26.42C41.4 25.9667 41.54 25.6 41.82 25.32C42.1133 25.04 42.4867 24.9 42.94 24.9H52.18C52.6333 24.9 53 25.04 53.28 25.32C53.56 25.6 53.7 25.9667 53.7 26.42V37.58C53.7 38.0467 53.56 38.42 53.28 38.7C53 38.98 52.6333 39.12 52.18 39.12C51.7133 39.12 51.34 38.98 51.06 38.7C50.78 38.42 50.64 38.0467 50.64 37.58V27.36H44.46V37.58C44.46 38.0467 44.32 38.42 44.04 38.7C43.76 38.98 43.3933 39.12 42.94 39.12ZM62.3377 28.94C63.1777 28.94 63.9243 29.16 64.5777 29.6C65.2443 30.0267 65.7577 30.6333 66.1177 31.42C66.491 32.1933 66.6777 33.0867 66.6777 34.1C66.6777 35.1133 66.491 36.0067 66.1177 36.78C65.7577 37.54 65.251 38.1267 64.5977 38.54C63.9443 38.9533 63.191 39.16 62.3377 39.16C61.671 39.16 61.0643 39.0267 60.5177 38.76C59.9843 38.48 59.571 38.0933 59.2777 37.6V41.38C59.2777 41.78 59.1443 42.1 58.8777 42.34C58.611 42.58 58.2577 42.7 57.8177 42.7C57.351 42.7 56.971 42.5733 56.6777 42.32C56.3977 42.0667 56.2577 41.7333 56.2577 41.32V30.4C56.2577 29.9733 56.391 29.6333 56.6577 29.38C56.9377 29.1133 57.3043 28.98 57.7577 28.98C58.211 28.98 58.571 29.1133 58.8377 29.38C59.1043 29.6333 59.2377 29.9733 59.2377 30.4V30.56C59.531 30.0533 59.951 29.66 60.4977 29.38C61.0443 29.0867 61.6577 28.94 62.3377 28.94ZM61.4577 36.86C62.1643 36.86 62.711 36.6267 63.0977 36.16C63.4843 35.68 63.6777 34.9933 63.6777 34.1C63.6777 33.1933 63.4843 32.4933 63.0977 32C62.711 31.4933 62.1643 31.24 61.4577 31.24C60.751 31.24 60.2043 31.4867 59.8177 31.98C59.431 32.46 59.2377 33.1533 59.2377 34.06C59.2377 34.9533 59.431 35.6467 59.8177 36.14C60.2043 36.62 60.751 36.86 61.4577 36.86ZM73.2433 39.16C72.2033 39.16 71.2899 38.9533 70.5033 38.54C69.7166 38.1133 69.1099 37.52 68.6833 36.76C68.2566 35.9867 68.0433 35.08 68.0433 34.04C68.0433 33 68.2566 32.1 68.6833 31.34C69.1099 30.5667 69.7166 29.9733 70.5033 29.56C71.2899 29.1467 72.2033 28.94 73.2433 28.94C74.2833 28.94 75.1966 29.1467 75.9833 29.56C76.7699 29.9733 77.3766 30.5667 77.8033 31.34C78.2299 32.1 78.4433 33 78.4433 34.04C78.4433 35.08 78.2299 35.9867 77.8033 36.76C77.3766 37.52 76.7699 38.1133 75.9833 38.54C75.1966 38.9533 74.2833 39.16 73.2433 39.16ZM73.2433 36.86C74.7099 36.86 75.4433 35.92 75.4433 34.04C75.4433 33.0933 75.2499 32.3867 74.8633 31.92C74.4899 31.4533 73.9499 31.22 73.2433 31.22C71.7766 31.22 71.0433 32.16 71.0433 34.04C71.0433 35.92 71.7766 36.86 73.2433 36.86ZM81.7411 39.12C81.2744 39.12 80.9011 38.9933 80.6211 38.74C80.3544 38.4867 80.2211 38.14 80.2211 37.7V30.7C80.2078 30.2333 80.3278 29.8667 80.5811 29.6C80.8478 29.32 81.1944 29.18 81.6211 29.18H86.5211C86.8811 29.18 87.1678 29.2867 87.3811 29.5C87.5944 29.7 87.7011 29.9733 87.7011 30.32C87.7011 30.6533 87.5944 30.9267 87.3811 31.14C87.1678 31.34 86.8811 31.44 86.5211 31.44H83.2411V37.7C83.2411 38.14 83.1078 38.4867 82.8411 38.74C82.5744 38.9933 82.2078 39.12 81.7411 39.12ZM95.1502 28.94C95.9902 28.94 96.7368 29.16 97.3902 29.6C98.0568 30.0267 98.5702 30.6333 98.9302 31.42C99.3035 32.1933 99.4902 33.0867 99.4902 34.1C99.4902 35.1133 99.3035 36.0067 98.9302 36.78C98.5702 37.54 98.0635 38.1267 97.4102 38.54C96.7568 38.9533 96.0035 39.16 95.1502 39.16C94.4835 39.16 93.8768 39.0267 93.3302 38.76C92.7968 38.48 92.3835 38.0933 92.0902 37.6V41.38C92.0902 41.78 91.9568 42.1 91.6902 42.34C91.4235 42.58 91.0702 42.7 90.6302 42.7C90.1635 42.7 89.7835 42.5733 89.4902 42.32C89.2102 42.0667 89.0702 41.7333 89.0702 41.32V30.4C89.0702 29.9733 89.2035 29.6333 89.4702 29.38C89.7502 29.1133 90.1168 28.98 90.5702 28.98C91.0235 28.98 91.3835 29.1133 91.6502 29.38C91.9168 29.6333 92.0502 29.9733 92.0502 30.4V30.56C92.3435 30.0533 92.7635 29.66 93.3102 29.38C93.8568 29.0867 94.4702 28.94 95.1502 28.94ZM94.2702 36.86C94.9768 36.86 95.5235 36.6267 95.9102 36.16C96.2968 35.68 96.4902 34.9933 96.4902 34.1C96.4902 33.1933 96.2968 32.4933 95.9102 32C95.5235 31.4933 94.9768 31.24 94.2702 31.24C93.5635 31.24 93.0168 31.4867 92.6302 31.98C92.2435 32.46 92.0502 33.1533 92.0502 34.06C92.0502 34.9533 92.2435 35.6467 92.6302 36.14C93.0168 36.62 93.5635 36.86 94.2702 36.86ZM109.216 36.08C109.482 36.08 109.696 36.1867 109.856 36.4C110.029 36.6133 110.116 36.8867 110.116 37.22C110.116 37.4467 110.049 37.66 109.916 37.86C109.782 38.0467 109.596 38.2067 109.356 38.34C108.902 38.58 108.376 38.78 107.776 38.94C107.176 39.0867 106.622 39.16 106.116 39.16C105.049 39.16 104.116 38.9533 103.316 38.54C102.529 38.1267 101.922 37.54 101.496 36.78C101.069 36.0067 100.856 35.1 100.856 34.06C100.856 33.06 101.062 32.1733 101.476 31.4C101.889 30.6267 102.462 30.0267 103.196 29.6C103.929 29.16 104.762 28.94 105.696 28.94C106.589 28.94 107.369 29.14 108.036 29.54C108.716 29.9267 109.242 30.4867 109.616 31.22C109.989 31.94 110.176 32.7867 110.176 33.76C110.176 34.0533 110.102 34.28 109.956 34.44C109.822 34.5867 109.629 34.66 109.376 34.66H103.776C103.869 35.4467 104.109 36.02 104.496 36.38C104.882 36.7267 105.436 36.9 106.156 36.9C106.542 36.9 106.889 36.8533 107.196 36.76C107.502 36.6667 107.842 36.54 108.216 36.38C108.402 36.3 108.582 36.2333 108.756 36.18C108.929 36.1133 109.082 36.08 109.216 36.08ZM105.776 31.02C105.202 31.02 104.742 31.2067 104.396 31.58C104.049 31.94 103.842 32.4667 103.776 33.16H107.636C107.596 32.4533 107.416 31.92 107.096 31.56C106.789 31.2 106.349 31.02 105.776 31.02ZM116.54 39.16C115.527 39.16 114.64 38.9533 113.88 38.54C113.12 38.1267 112.533 37.54 112.12 36.78C111.72 36.02 111.52 35.1267 111.52 34.1C111.52 33.0733 111.733 32.1733 112.16 31.4C112.6 30.6133 113.213 30.0067 114 29.58C114.787 29.1533 115.693 28.94 116.72 28.94C117.253 28.94 117.787 29.0133 118.32 29.16C118.867 29.3067 119.353 29.5133 119.78 29.78C120.193 30.0333 120.4 30.4067 120.4 30.9C120.4 31.2467 120.32 31.5333 120.16 31.76C120 31.9733 119.787 32.08 119.52 32.08C119.347 32.08 119.18 32.0533 119.02 32C118.873 31.9333 118.673 31.84 118.42 31.72C118.14 31.5733 117.887 31.46 117.66 31.38C117.447 31.3 117.2 31.26 116.92 31.26C116.173 31.26 115.6 31.5 115.2 31.98C114.813 32.4467 114.62 33.1333 114.62 34.04C114.62 34.9467 114.813 35.64 115.2 36.12C115.6 36.6 116.173 36.84 116.92 36.84C117.2 36.84 117.447 36.8067 117.66 36.74C117.873 36.66 118.133 36.54 118.44 36.38C118.693 36.26 118.893 36.1733 119.04 36.12C119.187 36.0533 119.347 36.02 119.52 36.02C119.773 36.02 119.98 36.1333 120.14 36.36C120.313 36.5867 120.4 36.8733 120.4 37.22C120.4 37.7133 120.193 38.08 119.78 38.32C119.353 38.5867 118.86 38.7933 118.3 38.94C117.74 39.0867 117.153 39.16 116.54 39.16Z" fill="#664938"/>
<path d="M742.34 40.268C742.092 40.268 741.888 40.204 741.728 40.076C741.576 39.948 741.484 39.78 741.452 39.572C741.42 39.372 741.456 39.152 741.56 38.912L742.172 37.592L740.312 33.344C740.152 32.984 740.152 32.668 740.312 32.396C740.472 32.124 740.784 31.988 741.248 31.988C741.496 31.988 741.7 32.048 741.86 32.168C742.02 32.28 742.164 32.504 742.292 32.84L743.3 35.444L744.356 32.828C744.484 32.5 744.628 32.28 744.788 32.168C744.956 32.048 745.18 31.988 745.46 31.988C745.812 31.988 746.06 32.124 746.204 32.396C746.356 32.668 746.352 32.984 746.192 33.344L743.468 39.464C743.324 39.776 743.164 39.988 742.988 40.1C742.82 40.212 742.604 40.268 742.34 40.268ZM750.18 38.132C749.46 38.132 748.836 38.008 748.308 37.76C747.788 37.504 747.388 37.144 747.108 36.68C746.828 36.216 746.688 35.668 746.688 35.036C746.688 34.436 746.82 33.904 747.084 33.44C747.356 32.976 747.724 32.616 748.188 32.36C748.66 32.096 749.196 31.964 749.796 31.964C750.388 31.964 750.9 32.088 751.332 32.336C751.772 32.584 752.108 32.94 752.34 33.404C752.58 33.86 752.7 34.396 752.7 35.012C752.7 35.324 752.516 35.48 752.148 35.48H748.728C748.8 35.864 748.96 36.14 749.208 36.308C749.456 36.476 749.8 36.56 750.24 36.56C750.408 36.56 750.608 36.54 750.84 36.5C751.072 36.46 751.292 36.396 751.5 36.308C751.756 36.212 751.972 36.212 752.148 36.308C752.324 36.396 752.44 36.536 752.496 36.728C752.56 36.912 752.552 37.104 752.472 37.304C752.4 37.496 752.252 37.644 752.028 37.748C751.748 37.884 751.448 37.98 751.128 38.036C750.816 38.1 750.5 38.132 750.18 38.132ZM749.892 33.344C749.572 33.344 749.308 33.44 749.1 33.632C748.9 33.824 748.772 34.104 748.716 34.472H750.948C750.924 34.096 750.82 33.816 750.636 33.632C750.46 33.44 750.212 33.344 749.892 33.344ZM755.672 38.132C755.216 38.132 754.812 38.048 754.46 37.88C754.116 37.712 753.844 37.484 753.644 37.196C753.452 36.9 753.356 36.564 753.356 36.188C753.356 35.764 753.468 35.428 753.692 35.18C753.916 34.924 754.276 34.744 754.772 34.64C755.268 34.528 755.928 34.472 756.752 34.472H757.208V34.304C757.208 34.016 757.132 33.812 756.98 33.692C756.836 33.572 756.584 33.512 756.224 33.512C756.024 33.512 755.804 33.536 755.564 33.584C755.332 33.624 755.068 33.7 754.772 33.812C754.508 33.908 754.288 33.904 754.112 33.8C753.936 33.696 753.82 33.548 753.764 33.356C753.716 33.156 753.736 32.96 753.824 32.768C753.92 32.568 754.1 32.42 754.364 32.324C754.748 32.188 755.1 32.096 755.42 32.048C755.748 31.992 756.048 31.964 756.32 31.964C757.304 31.964 758.032 32.176 758.504 32.6C758.984 33.024 759.224 33.692 759.224 34.604V37.028C759.224 37.748 758.896 38.108 758.24 38.108C757.616 38.108 757.284 37.788 757.244 37.148C757.132 37.452 756.94 37.692 756.668 37.868C756.396 38.044 756.064 38.132 755.672 38.132ZM756.152 36.74C756.448 36.74 756.696 36.644 756.896 36.452C757.104 36.26 757.208 36.008 757.208 35.696V35.48H756.752C756.28 35.48 755.932 35.532 755.708 35.636C755.492 35.732 755.384 35.888 755.384 36.104C755.384 36.288 755.448 36.44 755.576 36.56C755.712 36.68 755.904 36.74 756.152 36.74ZM761.532 38.108C760.804 38.108 760.44 37.748 760.44 37.028V33.056C760.44 32.344 760.788 31.988 761.484 31.988C761.812 31.988 762.064 32.08 762.24 32.264C762.424 32.448 762.516 32.712 762.516 33.056V33.092C762.652 32.748 762.872 32.476 763.176 32.276C763.48 32.076 763.84 31.972 764.256 31.964C764.488 31.956 764.66 32.016 764.772 32.144C764.892 32.264 764.956 32.492 764.964 32.828C764.964 33.116 764.904 33.344 764.784 33.512C764.664 33.68 764.436 33.78 764.1 33.812L763.824 33.836C763.4 33.876 763.092 33.996 762.9 34.196C762.708 34.388 762.612 34.676 762.612 35.06V37.028C762.612 37.748 762.252 38.108 761.532 38.108ZM770.757 38C770.288 38 769.946 37.8933 769.733 37.68C769.53 37.456 769.429 37.1307 769.429 36.704C769.429 36.4053 769.493 36.1387 769.621 35.904C769.749 35.6693 769.925 35.44 770.149 35.216L772.949 32.288C773.365 31.8507 773.658 31.472 773.829 31.152C774.01 30.8213 774.101 30.496 774.101 30.176C774.101 29.3653 773.584 28.96 772.549 28.96C772.293 28.96 772.016 28.9973 771.717 29.072C771.429 29.136 771.125 29.2533 770.805 29.424C770.517 29.5627 770.256 29.6053 770.021 29.552C769.786 29.488 769.594 29.3653 769.445 29.184C769.296 29.0027 769.2 28.7947 769.157 28.56C769.125 28.3253 769.162 28.096 769.269 27.872C769.376 27.6373 769.568 27.4453 769.845 27.296C770.336 27.04 770.842 26.8533 771.365 26.736C771.898 26.608 772.432 26.544 772.965 26.544C774.266 26.544 775.258 26.8267 775.941 27.392C776.634 27.9573 776.981 28.7733 776.981 29.84C776.981 30.5227 776.826 31.1733 776.517 31.792C776.208 32.4107 775.69 33.0773 774.965 33.792L773.141 35.616H776.325C777.136 35.616 777.541 36.0107 777.541 36.8C777.541 37.6 777.136 38 776.325 38H770.757ZM782.847 38.176C781.45 38.176 780.383 37.6693 779.647 36.656C778.911 35.632 778.543 34.1867 778.543 32.32C778.543 30.4427 778.911 29.0133 779.647 28.032C780.383 27.04 781.45 26.544 782.847 26.544C784.244 26.544 785.311 27.04 786.047 28.032C786.783 29.0133 787.151 30.4373 787.151 32.304C787.151 34.1813 786.783 35.632 786.047 36.656C785.311 37.6693 784.244 38.176 782.847 38.176ZM782.847 35.84C783.359 35.84 783.738 35.5627 783.983 35.008C784.239 34.4427 784.367 33.5413 784.367 32.304C784.367 31.0773 784.239 30.2027 783.983 29.68C783.738 29.1467 783.359 28.88 782.847 28.88C782.335 28.88 781.951 29.1467 781.695 29.68C781.45 30.2027 781.327 31.0773 781.327 32.304C781.327 33.5413 781.45 34.4427 781.695 35.008C781.951 35.5627 782.335 35.84 782.847 35.84ZM789.945 38C789.475 38 789.134 37.8933 788.921 37.68C788.718 37.456 788.617 37.1307 788.617 36.704C788.617 36.4053 788.681 36.1387 788.809 35.904C788.937 35.6693 789.113 35.44 789.337 35.216L792.137 32.288C792.553 31.8507 792.846 31.472 793.017 31.152C793.198 30.8213 793.289 30.496 793.289 30.176C793.289 29.3653 792.771 28.96 791.737 28.96C791.481 28.96 791.203 28.9973 790.905 29.072C790.617 29.136 790.313 29.2533 789.993 29.424C789.705 29.5627 789.443 29.6053 789.209 29.552C788.974 29.488 788.782 29.3653 788.633 29.184C788.483 29.0027 788.387 28.7947 788.345 28.56C788.313 28.3253 788.35 28.096 788.457 27.872C788.563 27.6373 788.755 27.4453 789.033 27.296C789.523 27.04 790.03 26.8533 790.553 26.736C791.086 26.608 791.619 26.544 792.153 26.544C793.454 26.544 794.446 26.8267 795.129 27.392C795.822 27.9573 796.169 28.7733 796.169 29.84C796.169 30.5227 796.014 31.1733 795.705 31.792C795.395 32.4107 794.878 33.0773 794.153 33.792L792.329 35.616H795.513C796.323 35.616 796.729 36.0107 796.729 36.8C796.729 37.6 796.323 38 795.513 38H789.945ZM799.746 38C798.936 38 798.53 37.6 798.53 36.8C798.53 36.0107 798.936 35.616 799.746 35.616H801.186V29.904L800.21 30.496C799.933 30.6667 799.672 30.736 799.426 30.704C799.181 30.6613 798.973 30.5547 798.802 30.384C798.632 30.2133 798.52 30.0053 798.466 29.76C798.413 29.5147 798.434 29.2693 798.53 29.024C798.626 28.7787 798.818 28.5707 799.106 28.4L801.314 27.024C801.794 26.7253 802.301 26.576 802.834 26.576C803.24 26.576 803.554 26.6827 803.778 26.896C804.002 27.0987 804.114 27.3973 804.114 27.792V35.616H805.394C806.205 35.616 806.61 36.0107 806.61 36.8C806.61 37.6 806.205 38 805.394 38H799.746Z" fill="#664938"/>
<defs>
<linearGradient id="paint0_linear_94_78" x1="-169.009" y1="-118.726" x2="-167.671" y2="261.575" gradientUnits="userSpaceOnUse">
<stop stop-color="#FEF5DA"/>
<stop offset="1" stop-color="#FEF5DA" stop-opacity="0"/>
</linearGradient>
<linearGradient id="paint1_linear_94_78" x1="1055.01" y1="-118.726" x2="1053.67" y2="261.575" gradientUnits="userSpaceOnUse">
<stop stop-color="#FEF5DA"/>
<stop offset="1" stop-color="#FEF5DA" stop-opacity="0"/>
</linearGradient>
</defs>
</svg>
